<?xml version="1.0" encoding="UTF-8" standalone="no"?>
<svg
   xmlns:dc="http://purl.org/dc/elements/1.1/"
   xmlns:cc="http://creativecommons.org/ns#"
   xmlns:rdf="http://www.w3.org/1999/02/22-rdf-syntax-ns#"
   xmlns:svg="http://www.w3.org/2000/svg"
   xmlns="http://www.w3.org/2000/svg"
   xmlns:sodipodi="http://sodipodi.sourceforge.net/DTD/sodipodi-0.dtd"
   xmlns:inkscape="http://www.inkscape.org/namespaces/inkscape"
   width="116mm"
   height="117mm"
   viewBox="0 0 116 117"
   version="1.1"
   id="svg176"
   inkscape:version="1.0.2-2 (e86c870879, 2021-01-15)"
   sodipodi:docname="boton_sin_apretar.svg">
  <defs
     id="defs170">
    <filter
       id="k"
       color-interpolation-filters="sRGB">
      <feGaussianBlur
         stdDeviation="6.6932271"
         id="feGaussianBlur2" />
    </filter>
    <radialGradient
       id="a"
       cx="-7994"
       cy="448.35999"
       r="140"
       gradientTransform="matrix(1.4857,-0.0088366,0.0087941,1.4786,3879,-285.22)"
       gradientUnits="userSpaceOnUse">
      <stop
         stop-color="#a7adab"
         offset="0"
         id="stop11" />
      <stop
         stop-color="#a6acaa"
         offset="3.052e-5"
         id="stop13" />
      <stop
         stop-color="#a6acaa"
         offset="6.103e-5"
         id="stop15" />
      <stop
         stop-color="#a6acaa"
         offset=".00012207"
         id="stop17" />
      <stop
         stop-color="#a6acaa"
         offset=".00024414"
         id="stop19" />
      <stop
         stop-color="#a6acaa"
         offset=".00048828"
         id="stop21" />
      <stop
         stop-color="#a6acaa"
         offset=".00097656"
         id="stop23" />
      <stop
         stop-color="#a6acaa"
         offset=".0019531"
         id="stop25" />
      <stop
         stop-color="#a6acaa"
         offset=".0039062"
         id="stop27" />
      <stop
         stop-color="#a6acaa"
         offset=".0078125"
         id="stop29" />
      <stop
         stop-color="#a5aba9"
         offset=".015625"
         id="stop31" />
      <stop
         stop-color="#a3a9a7"
         offset=".03125"
         id="stop33" />
      <stop
         stop-color="#a0a6a4"
         offset=".0625"
         id="stop35" />
      <stop
         stop-color="#999f9e"
         offset=".63176"
         id="stop37" />
      <stop
         stop-color="#8c9191"
         offset=".64674"
         id="stop39" />
      <stop
         stop-color="#727577"
         offset=".66131"
         id="stop41" />
      <stop
         stop-color="#3d3e43"
         offset="1"
         id="stop43" />
    </radialGradient>
    <filter
       id="i"
       color-interpolation-filters="sRGB">
      <feGaussianBlur
         stdDeviation="3.9043825"
         id="feGaussianBlur5" />
    </filter>
    <filter
       id="l"
       x="-0.29538"
       y="-0.33864"
       width="1.5908"
       height="1.6773"
       color-interpolation-filters="sRGB">
      <feGaussianBlur
         stdDeviation="16.863146"
         id="feGaussianBlur8" />
    </filter>
    <radialGradient
       id="b"
       cx="-7994"
       cy="448.35999"
       r="140"
       gradientTransform="matrix(4.1585,0.05566,-0.049165,3.6733,25271,-753.65)"
       gradientUnits="userSpaceOnUse">
      <stop
         stop-color="#333"
         offset="1"
         id="stop46" />
    </radialGradient>
  </defs>
  <sodipodi:namedview
     id="base"
     pagecolor="#ffffff"
     bordercolor="#666666"
     borderopacity="1.0"
     inkscape:pageopacity="0.0"
     inkscape:pageshadow="2"
     inkscape:zoom="0.7"
     inkscape:cx="425.98928"
     inkscape:cy="487.08565"
     inkscape:document-units="mm"
     inkscape:current-layer="layer1"
     inkscape:document-rotation="0"
     showgrid="false"
     inkscape:window-width="1298"
     inkscape:window-height="1040"
     inkscape:window-x="26"
     inkscape:window-y="0"
     inkscape:window-maximized="0" />
  <metadata
     id="metadata173">
    <rdf:RDF>
      <cc:Work
         rdf:about="">
        <dc:format>image/svg+xml</dc:format>
        <dc:type
           rdf:resource="http://purl.org/dc/dcmitype/StillImage" />
        <dc:title></dc:title>
      </cc:Work>
    </rdf:RDF>
  </metadata>
  <g
     inkscape:label="Capa 1"
     inkscape:groupmode="layer"
     id="layer1">
    <g
       transform="matrix(0.40020874,0,0,0.40020874,-90.736018,-152.20096)"
       id="g96">
      <path
         transform="translate(8369,84)"
         d="m -7854,448.36 c 0,77.32 -62.68,140 -140,140 -77.32,0 -140,-62.68 -140,-140 0,-77.32 62.68,-140 140,-140 77.32,0 140,62.68 140,140 z"
         fill="#333333"
         filter="url(#k)"
         id="path82" />
      <path
         transform="translate(8363,74)"
         d="m -7854,448.36 c 0,77.32 -62.68,140 -140,140 -77.32,0 -140,-62.68 -140,-140 0,-77.32 62.68,-140 140,-140 77.32,0 140,62.68 140,140 z"
         fill="url(#a)"
         id="path84"
         style="fill:url(#a)" />
      <path
         transform="matrix(0.89286,0,0,0.89286,7506.5,122.04)"
         d="m -7854,448.36 c 0,77.32 -62.68,140 -140,140 -77.32,0 -140,-62.68 -140,-140 0,-77.32 62.68,-140 140,-140 77.32,0 140,62.68 140,140 z"
         fill="#caf2eb"
         id="path86" />
      <path
         transform="matrix(0.85245,0,0,0.85245,7187.5,148.16)"
         d="m -7854,448.36 c 0,77.32 -62.68,140 -140,140 -77.32,0 -140,-62.68 -140,-140 0,-77.32 62.68,-140 140,-140 77.32,0 140,62.68 140,140 z"
         fill="#1a1a1a"
         filter="url(#i)"
         id="path88" />
      <path
         transform="matrix(0.85245,0,0,0.85245,7183.5,140.16)"
         d="m -7854,448.36 c 0,77.32 -62.68,140 -140,140 -77.32,0 -140,-62.68 -140,-140 0,-77.32 62.68,-140 140,-140 77.32,0 140,62.68 140,140 z"
         fill="#c91b12"
         id="path90" />
      <path
         d="m 362.52,428.96 c -35.173,12.106 -74.872,46.24 -82.868,82.868 -2.664,12.203 2.7763,24.314 7.7248,34.935 23.322,-33.577 63.738,-75.71 128.59,-98.253 -14.43,-12.194 -34.182,-26.181 -53.444,-19.551 z"
         fill="#ef6356"
         filter="url(#l)"
         id="path92" />
      <path
         transform="matrix(0.85245,0,0,0.85245,7183.5,140.16)"
         d="m -7854,448.36 c 0,77.32 -62.68,140 -140,140 -77.32,0 -140,-62.68 -140,-140 0,-77.32 62.68,-140 140,-140 77.32,0 140,62.68 140,140 z"
         fill="url(#b)"
         id="path94"
         style="fill:url(#b)" />
    </g>
  </g>
</svg>
