<?xml version="1.0" encoding="UTF-8" standalone="no"?>
<svg
   xmlns:dc="http://purl.org/dc/elements/1.1/"
   xmlns:cc="http://creativecommons.org/ns#"
   xmlns:rdf="http://www.w3.org/1999/02/22-rdf-syntax-ns#"
   xmlns:svg="http://www.w3.org/2000/svg"
   xmlns="http://www.w3.org/2000/svg"
   xmlns:sodipodi="http://sodipodi.sourceforge.net/DTD/sodipodi-0.dtd"
   xmlns:inkscape="http://www.inkscape.org/namespaces/inkscape"
   width="116mm"
   height="117mm"
   viewBox="0 0 116 117"
   version="1.1"
   id="svg176"
   inkscape:version="1.0.2-2 (e86c870879, 2021-01-15)"
   sodipodi:docname="boton_apretado.svg">
  <defs
     id="defs170">
    <filter
       id="k"
       color-interpolation-filters="sRGB">
      <feGaussianBlur
         stdDeviation="6.6932271"
         id="feGaussianBlur2" />
    </filter>
    <radialGradient
       id="a"
       cx="-7994"
       cy="448.35999"
       r="140"
       gradientTransform="matrix(1.4857,-0.0088366,0.0087941,1.4786,3879,-285.22)"
       gradientUnits="userSpaceOnUse">
      <stop
         stop-color="#a7adab"
         offset="0"
         id="stop11" />
      <stop
         stop-color="#a6acaa"
         offset="3.052e-5"
         id="stop13" />
      <stop
         stop-color="#a6acaa"
         offset="6.103e-5"
         id="stop15" />
      <stop
         stop-color="#a6acaa"
         offset=".00012207"
         id="stop17" />
      <stop
         stop-color="#a6acaa"
         offset=".00024414"
         id="stop19" />
      <stop
         stop-color="#a6acaa"
         offset=".00048828"
         id="stop21" />
      <stop
         stop-color="#a6acaa"
         offset=".00097656"
         id="stop23" />
      <stop
         stop-color="#a6acaa"
         offset=".0019531"
         id="stop25" />
      <stop
         stop-color="#a6acaa"
         offset=".0039062"
         id="stop27" />
      <stop
         stop-color="#a6acaa"
         offset=".0078125"
         id="stop29" />
      <stop
         stop-color="#a5aba9"
         offset=".015625"
         id="stop31" />
      <stop
         stop-color="#a3a9a7"
         offset=".03125"
         id="stop33" />
      <stop
         stop-color="#a0a6a4"
         offset=".0625"
         id="stop35" />
      <stop
         stop-color="#999f9e"
         offset=".63176"
         id="stop37" />
      <stop
         stop-color="#8c9191"
         offset=".64674"
         id="stop39" />
      <stop
         stop-color="#727577"
         offset=".66131"
         id="stop41" />
      <stop
         stop-color="#3d3e43"
         offset="1"
         id="stop43" />
    </radialGradient>
    <filter
       id="i"
       color-interpolation-filters="sRGB">
      <feGaussianBlur
         stdDeviation="3.9043825"
         id="feGaussianBlur5" />
    </filter>
    <filter
       id="l"
       x="-0.29538"
       y="-0.33864"
       width="1.5908"
       height="1.6773"
       color-interpolation-filters="sRGB">
      <feGaussianBlur
         stdDeviation="16.863146"
         id="feGaussianBlur8" />
    </filter>
    <radialGradient
       id="b"
       cx="-7994"
       cy="448.35999"
       r="140"
       gradientTransform="matrix(4.1585,0.05566,-0.049165,3.6733,25271,-753.65)"
       gradientUnits="userSpaceOnUse">
      <stop
         stop-color="#333"
         offset="1"
         id="stop46" />
    </radialGradient>
    <filter
       id="j"
       color-interpolation-filters="sRGB">
      <feGaussianBlur
         stdDeviation="6.6932271"
         id="feGaussianBlur49" />
    </filter>
    <radialGradient
       id="a-9"
       cx="-7994"
       cy="448.35999"
       r="140"
       gradientTransform="matrix(1.4857,-0.0088366,0.0087941,1.4786,3879,-285.22)"
       gradientUnits="userSpaceOnUse">
      <stop
         stop-color="#a7adab"
         offset="0"
         id="stop11-9" />
      <stop
         stop-color="#a6acaa"
         offset="3.052e-5"
         id="stop13-4" />
      <stop
         stop-color="#a6acaa"
         offset="6.103e-5"
         id="stop15-8" />
      <stop
         stop-color="#a6acaa"
         offset=".00012207"
         id="stop17-6" />
      <stop
         stop-color="#a6acaa"
         offset=".00024414"
         id="stop19-4" />
      <stop
         stop-color="#a6acaa"
         offset=".00048828"
         id="stop21-9" />
      <stop
         stop-color="#a6acaa"
         offset=".00097656"
         id="stop23-0" />
      <stop
         stop-color="#a6acaa"
         offset=".0019531"
         id="stop25-4" />
      <stop
         stop-color="#a6acaa"
         offset=".0039062"
         id="stop27-7" />
      <stop
         stop-color="#a6acaa"
         offset=".0078125"
         id="stop29-7" />
      <stop
         stop-color="#a5aba9"
         offset=".015625"
         id="stop31-4" />
      <stop
         stop-color="#a3a9a7"
         offset=".03125"
         id="stop33-1" />
      <stop
         stop-color="#a0a6a4"
         offset=".0625"
         id="stop35-0" />
      <stop
         stop-color="#999f9e"
         offset=".63176"
         id="stop37-0" />
      <stop
         stop-color="#8c9191"
         offset=".64674"
         id="stop39-8" />
      <stop
         stop-color="#727577"
         offset=".66131"
         id="stop41-9" />
      <stop
         stop-color="#3d3e43"
         offset="1"
         id="stop43-9" />
    </radialGradient>
    <filter
       id="h"
       color-interpolation-filters="sRGB">
      <feGaussianBlur
         stdDeviation="3.9043825"
         id="feGaussianBlur52" />
    </filter>
    <radialGradient
       id="c"
       cx="-7994"
       cy="448.35999"
       r="140"
       gradientTransform="matrix(2.4684,1.3915e-7,-1.1057e-7,1.9615,11738,-431.11)"
       gradientUnits="userSpaceOnUse">
      <stop
         stop-color="#a00000"
         offset="0"
         id="stop55" />
      <stop
         stop-color="#9e0000"
         offset=".0625"
         id="stop57" />
      <stop
         stop-color="#9c0000"
         offset=".125"
         id="stop59" />
      <stop
         stop-color="#900"
         offset=".25"
         id="stop61" />
      <stop
         stop-color="#920000"
         offset=".5"
         id="stop63" />
      <stop
         stop-color="#840000"
         offset="1"
         id="stop65" />
    </radialGradient>
    <filter
       id="g"
       color-interpolation-filters="sRGB">
      <feGaussianBlur
         stdDeviation="9.3680297"
         id="feGaussianBlur68" />
    </filter>
    <filter
       id="f"
       color-interpolation-filters="sRGB">
      <feGaussianBlur
         stdDeviation="2.0817844"
         id="feGaussianBlur71" />
    </filter>
    <filter
       id="e"
       color-interpolation-filters="sRGB">
      <feGaussianBlur
         stdDeviation="4.350419"
         id="feGaussianBlur74" />
    </filter>
    <filter
       id="d"
       color-interpolation-filters="sRGB">
      <feGaussianBlur
         stdDeviation="2.1252832"
         id="feGaussianBlur77" />
    </filter>
  </defs>
  <sodipodi:namedview
     id="base"
     pagecolor="#ffffff"
     bordercolor="#666666"
     borderopacity="1.0"
     inkscape:pageopacity="0.0"
     inkscape:pageshadow="2"
     inkscape:zoom="0.7"
     inkscape:cx="425.98928"
     inkscape:cy="487.08565"
     inkscape:document-units="mm"
     inkscape:current-layer="layer1"
     inkscape:document-rotation="0"
     showgrid="false"
     inkscape:window-width="1298"
     inkscape:window-height="1040"
     inkscape:window-x="26"
     inkscape:window-y="0"
     inkscape:window-maximized="0" />
  <metadata
     id="metadata173">
    <rdf:RDF>
      <cc:Work
         rdf:about="">
        <dc:format>image/svg+xml</dc:format>
        <dc:type
           rdf:resource="http://purl.org/dc/dcmitype/StillImage" />
        <dc:title></dc:title>
      </cc:Work>
    </rdf:RDF>
  </metadata>
  <g
     inkscape:label="Capa 1"
     inkscape:groupmode="layer"
     id="layer1">
    <g
       transform="matrix(0.56747833,0,0,0.56747833,6283.8807,-513.28626)"
       id="g116">
      <path
         transform="matrix(0.70525,0,0,0.70525,-5331,696.2)"
         d="m -7854,448.36 c 0,77.32 -62.68,140 -140,140 -77.32,0 -140,-62.68 -140,-140 0,-77.32 62.68,-140 140,-140 77.32,0 140,62.68 140,140 z"
         fill="#333333"
         filter="url(#j)"
         id="path98" />
      <path
         transform="matrix(0.70525,0,0,0.70525,-5335.2,689.14)"
         d="m -7854,448.36 c 0,77.32 -62.68,140 -140,140 -77.32,0 -140,-62.68 -140,-140 0,-77.32 62.68,-140 140,-140 77.32,0 140,62.68 140,140 z"
         fill="url(#a)"
         id="path100"
         style="fill:url(#a-9)" />
      <path
         transform="matrix(0.62969,0,0,0.62969,-5939.3,723.02)"
         d="m -7854,448.36 c 0,77.32 -62.68,140 -140,140 -77.32,0 -140,-62.68 -140,-140 0,-77.32 62.68,-140 140,-140 77.32,0 140,62.68 140,140 z"
         fill="#caf2eb"
         id="path102" />
      <path
         transform="matrix(0.60119,0,0,0.60119,-6164.2,741.44)"
         d="m -7854,448.36 c 0,77.32 -62.68,140 -140,140 -77.32,0 -140,-62.68 -140,-140 0,-77.32 62.68,-140 140,-140 77.32,0 140,62.68 140,140 z"
         fill="#1a1a1a"
         filter="url(#h)"
         id="path104" />
      <path
         transform="matrix(0.60119,0,0,0.60119,-6167.1,735.8)"
         d="m -7854,448.36 c 0,77.32 -62.68,140 -140,140 -77.32,0 -140,-62.68 -140,-140 0,-77.32 62.68,-140 140,-140 77.32,0 140,62.68 140,140 z"
         fill="#c91b12"
         id="path106" />
      <path
         transform="matrix(0.49287,0,0,0.49287,-7033,784.37)"
         d="m -7854,448.36 c 0,77.32 -62.68,140 -140,140 -77.32,0 -140,-62.68 -140,-140 0,-77.32 62.68,-140 140,-140 77.32,0 140,62.68 140,140 z"
         fill="url(#c)"
         filter="url(#g)"
         id="path108"
         style="fill:url(#c)" />
      <path
         transform="matrix(0.46484,0,0,0.46484,-7257.1,796.93)"
         d="m -7854,448.36 c 0,77.32 -62.68,140 -140,140 -77.32,0 -140,-62.68 -140,-140 0,-77.32 62.68,-140 140,-140 77.32,0 140,62.68 140,140 z"
         fill="none"
         filter="url(#f)"
         stroke="#a00000"
         stroke-width="5.3306"
         id="path110" />
      <path
         d="m -10900,961.49 c 24.286,90.618 -50.933,161.31 -144.64,92.11 13.889,27.378 41.908,41.56 74.709,41.56 46.484,0 84.187,-37.672 84.187,-84.156 0,-19.301 -3.329,-35.315 -14.255,-49.513 z"
         fill="#1a1a1a"
         filter="url(#e)"
         opacity="0.77736"
         id="path112" />
      <path
         d="m -10975,928.28 c -10.255,0.14507 -28.284,-0.43373 -49.742,17.351 -29.082,24.104 -25.757,63.5 -25.757,63.5 5.745,-50.091 35.168,-76.491 75.499,-80.851 z"
         fill="#ffeeaa"
         filter="url(#d)"
         id="path114" />
    </g>
  </g>
</svg>
