<?xml version="1.0" encoding="UTF-8" standalone="no"?>
<svg
   xmlns:dc="http://purl.org/dc/elements/1.1/"
   xmlns:cc="http://creativecommons.org/ns#"
   xmlns:rdf="http://www.w3.org/1999/02/22-rdf-syntax-ns#"
   xmlns:svg="http://www.w3.org/2000/svg"
   xmlns="http://www.w3.org/2000/svg"
   xmlns:sodipodi="http://sodipodi.sourceforge.net/DTD/sodipodi-0.dtd"
   xmlns:inkscape="http://www.inkscape.org/namespaces/inkscape"
   width="38"
   height="38"
   version="1.1"
   viewBox="0 0 38 38"
   id="svg10"
   sodipodi:docname="icono-titulo.svg"
   inkscape:version="1.0.2-2 (e86c870879, 2021-01-15)">
  <metadata
     id="metadata16">
    <rdf:RDF>
      <cc:Work
         rdf:about="">
        <dc:format>image/svg+xml</dc:format>
        <dc:type
           rdf:resource="http://purl.org/dc/dcmitype/StillImage" />
        <dc:title />
      </cc:Work>
    </rdf:RDF>
  </metadata>
  <defs
     id="defs14" />
  <sodipodi:namedview
     pagecolor="#ffffff"
     bordercolor="#666666"
     borderopacity="1"
     objecttolerance="10"
     gridtolerance="10"
     guidetolerance="10"
     inkscape:pageopacity="0"
     inkscape:pageshadow="2"
     inkscape:window-width="1920"
     inkscape:window-height="1017"
     id="namedview12"
     showgrid="false"
     inkscape:zoom="8"
     inkscape:cx="43.217745"
     inkscape:cy="22.359528"
     inkscape:window-x="-8"
     inkscape:window-y="-8"
     inkscape:window-maximized="1"
     inkscape:current-layer="svg10"
     inkscape:document-rotation="0" />
  <path
     d="m 37.349375,0.05233552 a 0.41709175,0.41709175 0 0 0 -0.30098,0.12196 0.41709175,0.41709175 0 0 0 -0.0767,0.48322 l -0.75282,0.75280998 c -1.26791,0.41174 -7.46005,2.4995 -10.37173,4.92701 -3.07516,2.5637003 -7.18627,7.5555905 -10.37325,10.0144305 l -4.15889,1.22461 c 0.94541,-1.6415 1.39687,-3.41957 1.39687,-3.41957 0,0 -2.18304,0.53242 -3.9369595,1.69428 -1.5448603,1.02337 -4.8719403,4.28612 -5.6812203,5.08676 l -0.2532,-0.2532 -0.65546,0.65545 0.45611,0.45611 c -0.1044,0.16794 -1.19056,1.91689 -1.69751003,2.89287 -0.38409,0.73952 -0.7389,1.97501 -0.7389,1.97501 0,0 1.23542003,-0.35482 1.97500003,-0.73891 0.976,-0.50693 2.72499,-1.5931 2.89287,-1.69751 l 0.45611,0.45611 0.65546,-0.65545 -0.25463,-0.25463 c 0.15933,-0.16193 0.25976,-0.26221 0.62479,-0.63941 l 2.1173103,0.40191 c 2.8727095,0.54541 0.85458,3.59441 1.4325295,4.17245 0.57793,0.57793 3.62727,-1.44016 4.17278,1.43252 l 0.40154,2.11409 c -0.37735,0.36654 -0.47788,0.4675 -0.63977,0.62729 l -0.24571,-0.24572 -0.65581,0.65581 0.4561,0.45611 c -0.10454,0.16818 -1.19025,1.91689 -1.69716,2.89287 -0.38409,0.73952 -0.73891,1.97467 -0.73891,1.97467 0,0 1.23506,-0.35482 1.97466,-0.73891 0.97595,-0.5069 2.72499,-1.59261 2.89322,-1.69717 l 0.45575,0.45575 0.65545,-0.65545 -0.26175,-0.26176 c 0.79931,-0.81112 4.05571,-4.14449 5.07574,-5.69257 1.15798,-1.75782 1.70564,-3.92527 1.70564,-3.92527 0,0 -1.77696,0.43533 -3.4128,1.37367 l 1.21785,-4.13568 c 2.45884,-3.18697 7.45073,-7.29792 10.01444,-10.37325 2.4275,-2.9116802 4.51533,-9.1038505 4.927,-10.3717305 l 0.75281,-0.75280998 a 0.41709175,0.41709175 0 0 0 0.48322,-0.0767 0.41709175,0.41709175 0 0 0 0,-0.58984 0.41709175,0.41709175 0 0 0 -0.28887,-0.12196 z m -9.46538,7.88121028 a 2.0246399,2.0246399 0 0 1 1.40222,0.59306 2.0246399,2.0246399 0 0 1 0,2.8632302 2.0246399,2.0246399 0 0 1 -2.86356,0 2.0246399,2.0246399 0 0 1 0,-2.8632302 2.0246399,2.0246399 0 0 1 1.46141,-0.59306 z M 3.0787252,22.233426 l 1.55698,1.55697 c -0.23819,0.13577 -1.05484,0.59987 -1.64043,0.90402 -0.4909,0.25496 -1.46639,0.64583 -1.46639,0.64583 0,0 0.39122,-0.97551 0.64618,-1.46641 0.30415,-0.58559 0.76795,-1.40224 0.90366,-1.64043 z m 10.9522998,10.9528 1.55663,1.55627 c -0.2384,0.13588 -1.05461,0.59992 -1.64008,0.90402 -0.4909,0.25496 -1.46639,0.64583 -1.46641,0.64583 0,0 0.39087,-0.97514 0.64583,-1.46604 0.30404,-0.58539 0.76803,-1.40148 0.90402,-1.64008 z"
     fill="#55555f"
     fill-opacity="0.94118"
     fill-rule="evenodd"
     id="path6-0"
     style="stroke-width:0.169412" />
  <path
     style="fill:#0000ff;stroke-width:0.118415"
     d="M 27.501655,11.859765 C 25.975163,11.533656 25.405669,9.8199023 26.442442,8.6723192 27.01166,8.0422623 27.722368,7.8472906 28.444515,8.1230811 c 1.304508,0.4981961 1.776186,2.0262509 0.934302,3.0267739 -0.495044,0.588325 -1.199403,0.854702 -1.877162,0.70991 z"
     id="path85" />
  <path
     style="fill:#0000ff;stroke-width:0.00740096"
     d="m 27.644986,11.968676 c -0.61109,-0.07029 -1.146815,-0.397243 -1.478221,-0.902171 -0.178127,-0.271392 -0.282815,-0.561457 -0.320622,-0.888358 -0.01504,-0.130073 -0.0112,-0.3887184 0.0076,-0.5106664 0.02677,-0.1737106 0.08576,-0.3760213 0.155628,-0.5336923 0.183032,-0.4130515 0.532915,-0.7783839 0.940642,-0.9821781 0.707086,-0.3534222 1.549062,-0.2631771 2.171472,0.2327436 0.08079,0.064373 0.241752,0.2253212 0.306222,0.3062001 0.500356,0.6277026 0.588265,1.4710401 0.227366,2.1811971 -0.308607,0.607259 -0.894063,1.014116 -1.573682,1.093615 -0.102051,0.01194 -0.345341,0.01378 -0.436397,0.0033 z m 0.477361,-0.08484 c 0.193376,-0.02898 0.372673,-0.08591 0.558773,-0.177426 0.195779,-0.09627 0.356078,-0.208085 0.5212,-0.363557 0.317132,-0.298599 0.505536,-0.640659 0.579008,-1.051228 0.01505,-0.08411 0.01695,-0.117835 0.01662,-0.2948036 -3.4e-4,-0.1822327 -0.0021,-0.2092711 -0.01973,-0.3071379 C 29.728697,9.4151186 29.627984,9.1638014 29.4757,8.9347856 29.240001,8.5803234 28.90343,8.3064228 28.499796,8.1405975 27.879498,7.8857595 27.261835,7.9748765 26.728799,8.396119 c -0.09532,0.075329 -0.303972,0.2835379 -0.376644,0.3758455 -0.359476,0.4566056 -0.503419,0.9905371 -0.412633,1.5305955 0.02962,0.176223 0.08216,0.336888 0.166518,0.50927 0.158216,0.323297 0.407267,0.594857 0.720159,0.785245 0.247418,0.150549 0.557642,0.259989 0.822487,0.290154 0.03867,0.0044 0.08197,0.0094 0.09621,0.01104 0.05368,0.0063 0.302779,-0.0032 0.377448,-0.01443 z"
     id="path87" />
  <path
     style="fill:#0000ff;stroke-width:0.00740096"
     d="m 27.582077,11.957022 c -0.361242,-0.055 -0.712587,-0.207369 -0.991489,-0.429977 -0.0903,-0.07207 -0.233129,-0.215204 -0.30472,-0.305363 -0.224407,-0.282609 -0.358999,-0.583919 -0.422845,-0.946621 -0.01464,-0.08318 -0.01638,-0.117914 -0.01613,-0.3226434 3.09e-4,-0.2564122 0.004,-0.2890776 0.05449,-0.4861954 0.04082,-0.1592573 0.08275,-0.272282 0.151877,-0.4093235 0.07224,-0.1432176 0.148379,-0.2590455 0.25093,-0.3817283 0.331443,-0.3965048 0.761119,-0.636767 1.27975,-0.715598 0.11912,-0.018106 0.427398,-0.017715 0.545811,6.915e-4 0.22488,0.034957 0.411954,0.093149 0.61058,0.1899291 0.500556,0.2438962 0.881631,0.6912046 1.043282,1.2246125 0.03378,0.1114643 0.06707,0.2776604 0.07848,0.3918133 0.01116,0.1117019 0.005,0.3729322 -0.01133,0.4781372 -0.102724,0.662925 -0.513332,1.227995 -1.102286,1.516943 -0.216948,0.106438 -0.41117,0.16562 -0.643449,0.196069 -0.113899,0.01493 -0.422876,0.01449 -0.522946,-7.46e-4 z m 0.255334,-0.06237 c -0.312509,-0.01311 -0.585947,-0.08517 -0.86955,-0.229175 -0.3006,-0.152634 -0.551265,-0.374399 -0.737716,-0.652663 -0.07261,-0.108367 -0.170511,-0.308778 -0.212502,-0.435015 -0.06675,-0.200679 -0.09451,-0.370545 -0.09494,-0.5809756 -5.33e-4,-0.2612101 0.04615,-0.4950544 0.146764,-0.7352102 0.196422,-0.4688308 0.623549,-0.9097506 1.077027,-1.1118069 0.388017,-0.1728893 0.797354,-0.1903907 1.211835,-0.051813 0.856503,0.2863642 1.436636,1.0546321 1.436636,1.9025307 0,0.50398 -0.194146,0.942202 -0.58543,1.321415 -0.33766,0.327244 -0.736169,0.518577 -1.178873,0.566001 l -0.06003,0.0064 0.07799,-0.0028 c 0.24781,-0.0089 0.594709,-0.135283 0.870326,-0.317106 0.15868,-0.104681 0.366544,-0.293055 0.479118,-0.434196 0.154668,-0.193916 0.275131,-0.421861 0.337468,-0.638568 0.05017,-0.174411 0.06058,-0.24574 0.06476,-0.443739 0.0054,-0.2546637 -0.0087,-0.3740625 -0.06853,-0.5801819 C 29.635593,9.1462819 29.465004,8.8616757 29.210996,8.6089394 29.021161,8.420054 28.820889,8.2811206 28.582073,8.1726399 28.210375,8.0037983 27.847909,7.9562054 27.485865,8.0287045 c -0.240147,0.048089 -0.498239,0.1679294 -0.723222,0.3358138 -0.107225,0.080012 -0.366511,0.3392986 -0.446523,0.4465232 -0.18089,0.2424115 -0.315762,0.5367756 -0.368668,0.8046324 -0.0279,0.141231 -0.03401,0.2085181 -0.03398,0.3737485 5.1e-5,0.2263026 0.02449,0.3853886 0.08887,0.5785546 0.176199,0.528657 0.557076,0.939351 1.080367,1.164948 0.261954,0.11293 0.513204,0.168188 0.7621,0.167607 l 0.125816,-2.94e-4 -0.133217,-0.0056 z"
     id="path89" />
  <path
     style="fill:#ffe680;stroke-width:0.03125"
     d="m 12.652562,35.926565 c 0.350342,-0.832205 0.558386,-1.247456 1.166527,-2.328363 l 0.214544,-0.38133 0.760003,0.760479 0.760004,0.760479 -0.214849,0.1244 c -0.860904,0.498469 -1.548706,0.852652 -2.21485,1.140535 -0.681304,0.294434 -0.630843,0.302591 -0.471379,-0.0762 z"
     id="path117" />
  <path
     style="fill:#ffe680;stroke-width:0.0441942"
     d="m 1.7021495,24.985128 c 0.2689258,-0.665237 1.3103153,-2.683355 1.3852364,-2.684462 0.012422,-1.84e-4 0.3574681,0.334985 0.7667701,0.744819 l 0.7441855,0.745152 -0.8737303,0.478596 c -0.7607243,0.416696 -1.9751606,0.992109 -2.0938915,0.992109 -0.022127,0 0.010016,-0.124296 0.07143,-0.276214 z"
     id="path121" />
  <path
     style="fill:#ffe680;stroke-width:0.00390625"
     d="m 12.488075,36.283287 c 0,-0.0086 0.209673,-0.51146 0.302075,-0.724498 0.2209,-0.509298 0.325742,-0.720333 0.669515,-1.347656 0.170489,-0.311111 0.558547,-1.002917 0.569113,-1.01458 0.0033,-0.0037 0.185788,0.176612 0.779517,0.770346 0.426334,0.426339 0.774349,0.775792 0.773365,0.776561 -0.0017,0.0014 -0.04013,0.02309 -0.32796,0.185645 -0.57714,0.325946 -1.120698,0.621832 -1.386719,0.754862 -0.286234,0.143137 -0.774986,0.358098 -1.281985,0.563836 -0.09352,0.03795 -0.09692,0.03919 -0.09692,0.03548 z m 0.169114,-0.08155 c 0.08421,-0.02877 0.531987,-0.222478 0.811355,-0.350984 0.404108,-0.185886 0.878957,-0.429417 1.375,-0.705181 0.213392,-0.11863 0.710576,-0.403377 0.710813,-0.407096 6.8e-5,-0.0011 -0.342282,-0.34436 -0.760779,-0.762853 l -0.760904,-0.760896 -0.148923,0.264806 c -0.674627,1.199576 -0.841933,1.530217 -1.208273,2.387853 -0.11227,0.262834 -0.124711,0.294662 -0.124826,0.319336 -1.2e-4,0.02581 0.01014,0.03373 0.04054,0.03129 0.0132,-0.0011 0.0429,-0.0084 0.066,-0.01628 z"
     id="path125" />
  <path
     style="fill:#00ffff;stroke-width:0.00390625"
     d="m 1.5354807,25.329686 c 0.012384,-0.03183 0.1226244,-0.298929 0.1688858,-0.409179 0.202716,-0.483115 0.3612644,-0.831831 0.492848,-1.083985 0.1832314,-0.351127 0.4923229,-0.912866 0.8167623,-1.484375 0.03537,-0.0623 0.06462,-0.113648 0.065,-0.114097 3.803e-4,-4.48e-4 0.3500227,0.348519 0.776983,0.775484 l 0.7762916,0.776299 -0.1162999,0.06598 c -0.574556,0.325988 -1.0884874,0.609213 -1.4502843,0.799245 -0.2747893,0.144331 -0.6479134,0.314169 -1.1582031,0.527189 -0.1494892,0.0624 -0.3690639,0.152317 -0.3719701,0.152317 -0.00105,0 -0.00106,-0.0022 -1.33e-5,-0.0049 z m 0.1669456,-0.08514 c 0.2616078,-0.08651 1.211141,-0.53881 1.8651941,-0.888473 0.1225557,-0.06552 1.0264619,-0.560363 1.030295,-0.564035 0.00331,-0.0032 -1.1010571,-1.106992 -1.2853248,-1.284692 -0.1444997,-0.13935 -0.2188553,-0.207936 -0.2254277,-0.207936 -0.043635,0 -0.4168195,0.678753 -0.8547821,1.554687 -0.243765,0.487536 -0.4216155,0.863716 -0.5150729,1.089456 -0.0656,0.158452 -0.1048742,0.290789 -0.092925,0.313116 0.00534,0.01 0.016433,0.0083 0.078044,-0.01212 z"
     id="path127" />
  <path
     style="fill:#00ffff;stroke-width:0.0883883"
     d="M 27.483825,11.803047 C 26.963799,11.683457 26.449374,11.3169 26.196973,10.886091 26.038371,10.615382 25.855999,9.5797437 25.958267,9.5305427 c 0.06574,-0.031625 0.394619,-0.7150849 0.378639,-0.786855 -0.01422,-0.063856 0.345975,-0.4063735 0.365497,-0.3475615 0.007,0.021237 0.130317,-0.038425 0.273928,-0.1325825 0.192087,-0.1259408 0.43158,-0.1742821 0.905981,-0.182871 0.398395,-0.00721 0.644869,0.023755 0.644869,0.081023 0,0.050984 0.02434,0.06836 0.05409,0.038614 0.05189,-0.05189 0.730968,0.5926528 1.006576,0.9553847 0.168943,0.2223485 0.216783,0.8925846 0.09527,1.3347036 -0.08647,0.314627 -0.710374,1.219353 -0.716798,1.039438 -0.0015,-0.0433 -0.06121,-0.0015 -0.132582,0.09284 -0.07137,0.09437 -0.129772,0.147977 -0.129772,0.119136 0,-0.02884 -0.169043,-0.0026 -0.37565,0.05831 -0.297909,0.08783 -0.472677,0.08843 -0.844483,0.0029 z"
     id="path129" />
  <path
     style="fill:#00ffff;stroke-width:0.00552427"
     d="M 29.566801,9.1239505 C 29.380475,8.8839697 28.929999,8.4320763 28.709946,8.2644002 c -0.02644,-0.020146 -0.0471,-0.037598 -0.04592,-0.038781 0.0032,-0.00322 0.141895,0.076034 0.201845,0.1153455 0.238025,0.1560823 0.447052,0.3620136 0.599818,0.5909348 0.05196,0.077862 0.126872,0.2084508 0.122236,0.2130863 -0.0015,0.00148 -0.01099,-0.00798 -0.02112,-0.021035 z"
     id="path131" />
  <path
     style="fill:#00ffff;stroke-width:0.00552427"
     d="m 27.849274,11.86178 c -0.163289,-0.01449 -0.402239,-0.06407 -0.544662,-0.113009 -0.239297,-0.08223 -0.460331,-0.205206 -0.67344,-0.374676 -0.07973,-0.0634 -0.232389,-0.214745 -0.292149,-0.289628 -0.05492,-0.06881 -0.130122,-0.180204 -0.154434,-0.228741 -0.07372,-0.147175 -0.159716,-0.470123 -0.212979,-0.799809 -0.02507,-0.1551776 -0.03402,-0.2375 -0.03754,-0.3452674 -0.0041,-0.125532 5.49e-4,-0.1496609 0.03596,-0.1867843 0.03346,-0.035086 0.0855,-0.1230071 0.160824,-0.2717302 0.107441,-0.2121348 0.192726,-0.4120696 0.205013,-0.4806117 0.0035,-0.019749 0.0074,-0.041366 0.0087,-0.048037 0.0064,-0.034905 0.150193,-0.192484 0.244118,-0.2674751 0.06198,-0.049487 0.09665,-0.068185 0.110457,-0.059565 0.0064,0.00398 0.01819,0.00505 0.03042,0.00276 0.02828,-0.00531 0.130413,-0.058896 0.227592,-0.1194199 0.135772,-0.08456 0.220943,-0.1187492 0.370127,-0.1485753 0.16892,-0.033772 0.344011,-0.046384 0.649102,-0.046757 0.273935,-3.348e-4 0.421352,0.011875 0.500576,0.04146 0.03467,0.012946 0.04404,0.023038 0.04889,0.05264 0.0021,0.012642 0.0087,0.027435 0.01469,0.032872 0.0105,0.0095 0.01165,0.00949 0.02964,-1.931e-4 0.01276,-0.00687 0.02363,-0.00885 0.03415,-0.0062 0.09451,0.023722 0.578107,0.4769343 0.864009,0.8097304 0.149569,0.1741003 0.18062,0.2294905 0.22296,0.397719 0.0704,0.2797257 0.0757,0.6573546 0.01361,0.9693726 -0.02697,0.135521 -0.06418,0.2313 -0.15187,0.390905 -0.201553,0.366851 -0.519134,0.796532 -0.573348,0.775728 -0.004,-0.0016 -0.0089,-0.0105 -0.01077,-0.01987 -0.0082,-0.04124 -0.05379,-0.0107 -0.136674,0.09165 -0.05904,0.07291 -0.106609,0.123317 -0.116367,0.123317 -0.0031,0 -0.0093,-0.0037 -0.01384,-0.0083 -0.01053,-0.01053 -0.03823,-0.01049 -0.110115,1.89e-4 -0.05349,0.0079 -0.109907,0.02148 -0.342086,0.08209 -0.05165,0.01348 -0.121258,0.02856 -0.15468,0.03349 -0.06039,0.0089 -0.198281,0.01493 -0.24583,0.01071 z"
     id="path133" />
  <path
     style="fill:#00ffff;stroke-width:0.00552427"
     d="m 27.849274,11.86178 c -0.111319,-0.0099 -0.267224,-0.03721 -0.394985,-0.06924 -0.29144,-0.07307 -0.578386,-0.219745 -0.832383,-0.425487 -0.07917,-0.06413 -0.225685,-0.210799 -0.286087,-0.286387 -0.05428,-0.06793 -0.126439,-0.175463 -0.151982,-0.226495 -0.112663,-0.225087 -0.251485,-0.8759066 -0.251485,-1.1790031 0,-0.088878 0.0068,-0.1208338 0.03076,-0.1448096 0.05115,-0.051147 0.159106,-0.2469186 0.265325,-0.4811343 0.07053,-0.1555242 0.104927,-0.2482949 0.110899,-0.2991041 0.0025,-0.021108 0.0092,-0.038224 0.02336,-0.059121 0.08043,-0.119029 0.308408,-0.3209267 0.333758,-0.2955768 0.01982,0.019815 0.103283,-0.017818 0.266165,-0.1200044 0.220116,-0.1380936 0.423127,-0.1802552 0.925315,-0.1921703 0.254504,-0.00604 0.506793,0.011865 0.586203,0.0416 0.03649,0.013665 0.0464,0.023516 0.05133,0.051038 0.002,0.011177 0.0084,0.026093 0.01422,0.033146 0.01037,0.012577 0.01091,0.012638 0.02789,0.00316 0.02689,-0.015012 0.03848,-0.012076 0.09141,0.023148 0.204535,0.1361229 0.761515,0.6914062 0.925891,0.9230706 0.07709,0.1086461 0.125806,0.2752327 0.150528,0.5147218 0.03015,0.2920633 0.0029,0.6421652 -0.06599,0.8482382 -0.07978,0.238607 -0.448675,0.819206 -0.627712,0.987957 -0.04914,0.04632 -0.06651,0.05092 -0.07284,0.01928 -0.0084,-0.04194 -0.0642,-0.0022 -0.147137,0.104657 -0.03683,0.04747 -0.08307,0.09741 -0.09717,0.104957 -0.0122,0.0065 -0.01493,0.0065 -0.01921,-4.22e-4 -0.01304,-0.02097 -0.157999,-8.06e-4 -0.321238,0.04468 -0.132103,0.03681 -0.228846,0.05976 -0.290545,0.06892 -0.05848,0.0087 -0.197033,0.01457 -0.244292,0.01037 z"
     id="path135" />
  <path
     style="fill:#00ffff;stroke-width:0.00552427"
     d=""
     id="path137" />
  <path
     style="fill:#00ffff;stroke-width:0.00552427"
     d="m 29.515139,9.0556002 c -0.176557,-0.212393 -0.52951,-0.5665823 -0.736328,-0.7389068 -0.04022,-0.033508 -0.07205,-0.061998 -0.07073,-0.063311 0.0042,-0.00422 0.158393,0.090023 0.223441,0.1365935 0.231477,0.1657248 0.431079,0.377947 0.571883,0.608043 0.0506,0.08268 0.06583,0.110412 0.0625,0.1137422 -0.0012,0.00123 -0.02407,-0.024046 -0.05077,-0.056161 z"
     id="path139" />
  <path
     style="fill:#00ffff;stroke-width:0.00552427"
     d="m 27.644876,11.966253 c -0.05053,-0.0054 -0.193452,-0.0313 -0.254792,-0.04622 -0.306313,-0.07451 -0.592312,-0.218288 -0.829987,-0.417253 -0.08238,-0.06896 -0.210981,-0.199903 -0.276222,-0.281245 -0.203835,-0.254144 -0.342107,-0.549887 -0.406795,-0.870073 -0.05371,-0.265821 -0.05071,-0.5723603 0.0081,-0.8277016 0.07182,-0.3118342 0.200871,-0.5814353 0.393146,-0.8212933 0.06489,-0.080945 0.204428,-0.2229032 0.287118,-0.2920916 0.311974,-0.2610371 0.678544,-0.4157502 1.088011,-0.4592014 0.10065,-0.010681 0.295057,-0.01063 0.398994,1.046e-4 0.387399,0.040009 0.75328,0.1886274 1.059122,0.4302084 0.07035,0.055569 0.264375,0.2493935 0.31932,0.3189903 0.232699,0.2947552 0.378067,0.6407153 0.426781,1.0156935 0.01365,0.1050929 0.01655,0.3094251 0.006,0.4198451 -0.07353,0.766497 -0.561564,1.418154 -1.271343,1.697603 -0.171668,0.06759 -0.356907,0.113073 -0.532297,0.130704 -0.05239,0.0053 -0.369838,0.0067 -0.415116,0.0019 z m 0.257657,-0.06669 c 0.0035,-0.0022 -0.03009,-0.0048 -0.07458,-0.0057 -0.155798,-0.0031 -0.31043,-0.02762 -0.47639,-0.0754 -0.266483,-0.07671 -0.492921,-0.191118 -0.712106,-0.359789 -0.0842,-0.0648 -0.259105,-0.240298 -0.326058,-0.327172 -0.220042,-0.285514 -0.350464,-0.613821 -0.386372,-0.972598 -0.0064,-0.06381 -0.0066,-0.2767113 -3.98e-4,-0.3322517 0.0022,-0.019749 0.0044,-0.032036 0.0049,-0.027305 0.03255,0.3324487 0.137027,0.8025107 0.223347,1.0048987 0.07318,0.171578 0.249445,0.389636 0.447862,0.554046 0.272258,0.225596 0.571119,0.375494 0.898526,0.450668 0.326459,0.07496 0.503687,0.07816 0.751301,0.01358 0.282264,-0.07362 0.349161,-0.08889 0.325932,-0.07439 -0.03872,0.02417 -0.248888,0.08941 -0.359078,0.11146 -0.06966,0.01394 -0.208391,0.03309 -0.239845,0.03311 -0.0058,4e-6 -0.0093,0.0013 -0.0077,0.0029 0.0016,0.0016 0.03686,3.13e-4 0.07838,-0.0028 0.156857,-0.01191 0.338343,-0.05799 0.51333,-0.130354 0.05624,-0.02326 0.07878,-0.0299 0.10142,-0.0299 0.02349,0 0.03026,0.0021 0.03504,0.01108 0.0054,0.01011 0.0072,0.0104 0.02091,0.0033 0.01625,-0.0084 0.06633,-0.05932 0.09255,-0.09408 0.02177,-0.02887 0.145749,-0.109856 0.155624,-0.10166 0.01888,0.01567 0.06322,-0.01649 0.131726,-0.09551 0.02717,-0.03135 0.09305,-0.100582 0.146396,-0.153859 0.161386,-0.161175 0.277265,-0.319038 0.369157,-0.502902 0.110714,-0.221524 0.184174,-0.49347 0.182054,-0.673961 l -6.81e-4,-0.058 -0.0045,0.06353 c -0.02542,0.355838 -0.162223,0.700211 -0.391369,0.985165 -0.05416,0.06734 -0.176493,0.199418 -0.180762,0.195149 -0.0012,-0.0012 0.0247,-0.0407 0.05766,-0.08766 0.154502,-0.220118 0.318307,-0.501571 0.3773,-0.648285 0.0962,-0.239251 0.125344,-0.6988299 0.06609,-1.0423257 -0.01832,-0.1062294 -0.0179,-0.1028971 -0.01099,-0.087053 0.01117,0.025606 0.04353,0.1568919 0.05719,0.2320194 0.01175,0.064605 0.01794,0.1151239 0.02776,0.2264952 0.0012,0.013673 0.0013,-0.01243 2.81e-4,-0.058005 C 29.79284,9.6916198 29.74177,9.4755301 29.663163,9.2825282 29.508488,8.9027424 29.230114,8.5689351 28.870123,8.3315685 28.796803,8.2832205 28.665026,8.2104818 28.591778,8.1779212 c -0.03311,-0.01472 -0.06667,-0.032134 -0.07458,-0.038697 -0.0079,-0.00656 -0.03401,-0.01746 -0.05801,-0.024214 -0.024,-0.00675 -0.07595,-0.022061 -0.115451,-0.034013 -0.202459,-0.061267 -0.341911,-0.082862 -0.535093,-0.082862 -0.368638,0 -0.713325,0.1199171 -1.034666,0.3599611 -0.02782,0.020783 -0.05334,0.037786 -0.0567,0.037786 -0.0034,0 -0.01051,-0.00275 -0.01588,-0.0061 -0.0073,-0.00459 -0.01452,-0.0041 -0.02893,0.00199 -0.07008,0.029579 -0.273876,0.2234408 -0.320833,0.3051892 -0.0087,0.015192 -0.01589,0.035305 -0.01592,0.044697 -9.9e-5,0.032498 -0.01499,0.06601 -0.05228,0.1176261 -0.121351,0.1679828 -0.232607,0.3912423 -0.290558,0.5830691 -0.01583,0.052417 -0.02583,0.075945 -0.03753,0.088388 -0.0088,0.00933 -0.01776,0.023172 -0.01996,0.030768 -0.0022,0.0076 -0.0061,0.062286 -0.0086,0.121534 -0.0025,0.059248 -0.0076,0.1400403 -0.01116,0.1795388 -0.01904,0.2088715 0.01501,0.4862775 0.08613,0.7015825 0.128772,0.389857 0.373532,0.720433 0.712609,0.962457 0.273532,0.195241 0.635798,0.331717 0.977539,0.368269 0.07858,0.0084 0.200705,0.01112 0.2107,0.0047 z"
     id="path141" />
  <path
     style="fill:#00ffff;stroke-width:0.00390625"
     d="m 25.986614,9.4929825 c -1.67e-4,-0.00942 0.04148,-0.1332115 0.06498,-0.193125 0.03308,-0.084352 0.0966,-0.2125933 0.144614,-0.2919629 0.03945,-0.065211 0.110677,-0.1702501 0.113517,-0.1674096 0.0027,0.00268 -0.04088,0.1088269 -0.0813,0.1981405 -0.04505,0.099544 -0.125339,0.2610554 -0.166748,0.3354508 -0.03199,0.057469 -0.07494,0.1255134 -0.07506,0.1189062 z"
     id="path143" />
  <path
     style="fill:#00ffff;stroke-width:0.00390625"
     d="m 26.769314,8.372976 c 0.164282,-0.1261063 0.367212,-0.2339331 0.552212,-0.2934178 0.09342,-0.030037 0.205917,-0.05423 0.313452,-0.067407 0.07869,-0.00964 0.267086,-0.00969 0.348435,-8.38e-5 0.113496,0.0134 0.246376,0.041198 0.3293,0.068887 l 0.03516,0.011739 -0.02539,-0.00184 c -0.01396,-0.00101 -0.05088,-0.00394 -0.08203,-0.00652 -0.07447,-0.00616 -0.429241,-0.00608 -0.539062,1.137e-4 -0.282865,0.015962 -0.448588,0.045778 -0.59375,0.1068272 -0.04806,0.020213 -0.07809,0.036824 -0.168818,0.093382 -0.0662,0.04127 -0.168921,0.097438 -0.177583,0.097104 -0.0018,-6.8e-5 0.0019,-0.00402 0.0081,-0.00879 z"
     id="path145" />
  <path
     style="fill:#00ffff;stroke-width:0.00390625"
     d="m 27.856028,11.862101 c -0.142696,-0.0084 -0.388624,-0.05798 -0.542194,-0.109269 -0.345359,-0.115337 -0.679194,-0.333999 -0.918183,-0.601412 -0.08987,-0.10056 -0.180411,-0.228653 -0.219504,-0.310547 -0.08907,-0.186592 -0.192032,-0.622732 -0.235152,-0.9960936 -0.0086,-0.07404 -0.0099,-0.2527264 -0.0021,-0.2784459 0.0033,-0.010905 0.01426,-0.02681 0.03147,-0.045695 0.09246,-0.1014239 0.35642,-0.6513922 0.366572,-0.7637493 0.0028,-0.030727 0.01234,-0.050833 0.04484,-0.094259 0.03201,-0.042775 0.158599,-0.1697354 0.208306,-0.2089219 0.0698,-0.055027 0.09559,-0.068334 0.111217,-0.057387 0.02149,0.015056 0.09339,-0.018099 0.253675,-0.1169832 0.118377,-0.07303 0.190191,-0.1046758 0.304267,-0.1340791 0.174427,-0.044959 0.479761,-0.068812 0.803487,-0.062769 0.234145,0.00437 0.367169,0.01957 0.430456,0.049186 0.02666,0.012477 0.03042,0.017772 0.03446,0.048556 0.0026,0.019424 0.01538,0.037596 0.02654,0.037596 0.003,0 0.01216,-0.00453 0.02032,-0.010063 0.01478,-0.010031 0.01488,-0.010042 0.03244,-0.00334 0.111581,0.042613 0.54941,0.4517115 0.846279,0.7907454 0.05735,0.0655 0.12934,0.1551008 0.147501,0.1835938 0.07036,0.1103911 0.11599,0.2847641 0.140552,0.5371094 0.0078,0.080291 0.0065,0.3542594 -0.0021,0.4394524 -0.01782,0.176158 -0.0455,0.311302 -0.08316,0.406007 -0.09842,0.247492 -0.403858,0.726041 -0.593257,0.929508 -0.02874,0.03087 -0.06609,0.05902 -0.07832,0.05902 -0.01033,0 -0.0137,-0.0041 -0.01711,-0.02077 -0.008,-0.0392 -0.05204,-0.0099 -0.129788,0.08649 -0.05713,0.07081 -0.0846,0.101457 -0.106286,0.118619 l -0.01901,0.01504 -0.0096,-0.01041 c -0.0096,-0.01039 -0.0097,-0.01041 -0.05326,-0.0081 -0.07093,0.0037 -0.161896,0.02333 -0.347627,0.07484 -0.175153,0.04858 -0.303858,0.0649 -0.445636,0.05654 z"
     id="path147" />
  <path
     style="fill:#00ffff;stroke-width:0.00390625"
     d="m 27.899627,8.0782818 c 0.007,-8.665e-4 0.01841,-8.665e-4 0.02539,0 0.007,8.665e-4 0.0013,0.00158 -0.0127,0.00158 -0.01396,0 -0.01968,-7.09e-4 -0.0127,-0.00158 z"
     id="path149" />
  <path
     style="fill:#00ffff;stroke-width:0.00390625"
     d="m 28.541429,8.2054232 c -0.0044,-0.00467 -0.009,-0.014166 -0.01028,-0.021094 -0.0048,-0.025374 -0.0028,-0.025608 0.04133,-0.00483 0.02778,0.013092 0.03655,0.018604 0.02716,0.017083 -0.01091,-0.00177 -0.01667,-1.647e-4 -0.02713,0.00755 -0.01625,0.011986 -0.02095,0.012182 -0.03109,0.0013 z"
     id="path151" />
  <path
     style="fill:#00ffff;stroke-width:0.00390625"
     d="m 28.543669,8.2027395 c -0.0096,-0.010571 -0.01503,-0.031698 -0.0088,-0.034083 0.0027,-0.00104 0.01673,0.00364 0.03117,0.010402 l 0.02626,0.012287 -0.01753,0.00933 c -0.0211,0.011231 -0.02268,0.011336 -0.03108,0.00206 z"
     id="path153" />
  <path
     style="fill:#00ffff;stroke-width:0.00390625"
     d=""
     id="path155" />
  <path
     style="fill:#808080;stroke-width:0.0625"
     d="m 11.250683,37.392339 c 0.30827,-1.02 0.69003,-1.816969 1.60072,-3.34169 0.374025,-0.626211 0.697301,-1.183534 0.718392,-1.238495 0.02449,-0.06381 -0.0373,-0.177973 -0.170933,-0.315851 l -0.209279,-0.215921 0.292075,-0.292077 c 0.28941,-0.289409 0.293268,-0.290998 0.422523,-0.174023 0.129387,0.117093 0.133209,0.115288 0.470726,-0.222258 l 0.340278,-0.34031 -0.244006,-1.257759 c -0.248151,-1.27912 -0.37684,-1.652452 -0.683324,-1.98234 -0.441362,-0.475066 -1.161446,-0.583949 -2.381534,-0.360109 -1.45617,0.267153 -1.5129106,0.210413 -1.245758,-1.245757 0.22384,-1.220089 0.114958,-1.940173 -0.3601082,-2.381534 -0.3298882,-0.306485 -0.70322,-0.435174 -1.98234,-0.683325 L 6.560356,23.096884 6.2200459,23.437163 c -0.3375465,0.337516 -0.3393513,0.341339 -0.2222578,0.470726 0.1169743,0.129255 0.1153856,0.133112 -0.174024,0.422522 L 5.5316879,24.622487 5.3242965,24.421475 c -0.1140652,-0.110556 -0.2291752,-0.201011 -0.2558,-0.201011 -0.026625,0 -0.5689779,0.312717 -1.2052293,0.694927 C 3.2270158,25.297602 2.4626386,25.732175 2.1646512,25.88111 1.6077956,26.15943 0.34688067,26.621572 0.29256403,26.567255 0.24132474,26.516015 0.6461739,25.410071 0.93429358,24.814214 1.0838881,24.504839 1.5320437,23.70751 1.9301948,23.042373 2.328346,22.377235 2.654106,21.816074 2.654106,21.795348 c 0,-0.02073 -0.090455,-0.131009 -0.2010117,-0.245075 L 2.2520827,21.342882 2.5441588,21.050805 c 0.2855284,-0.285528 0.294889,-0.28953 0.4175503,-0.178523 0.123294,0.11158 0.1469597,0.09293 1.3620605,-1.073541 2.0678801,-1.985115 3.5981033,-3.324226 4.4552777,-3.898851 0.6706712,-0.449597 1.9549377,-1.058863 2.9547857,-1.401773 0.473538,-0.162405 0.874849,-0.281411 0.891803,-0.264457 0.08493,0.08493 -0.582461,1.837952 -1.067125,2.802977 -0.154363,0.307355 -0.259284,0.55885 -0.233158,0.558878 0.02613,2.9e-5 0.975628,-0.271832 2.110003,-0.604135 l 2.0625,-0.604188 0.71875,-0.592832 c 0.415881,-0.343021 2.443788,-2.323551 4.8125,-4.700065 3.927339,-3.9402758 4.622873,-4.5984195 5.59375,-5.2930434 1.756754,-1.2568886 5.111161,-2.8068574 8.96875,-4.1441854 0.523426,-0.1814585 0.640016,-0.250751 0.984375,-0.5850398 0.314879,-0.30567098 0.390625,-0.41706134 0.390625,-0.57444555 0,-0.35438926 0.417946,-0.5404401 0.646563,-0.28782095 0.233548,0.25806659 0.04967,0.63570371 -0.30954,0.63570371 -0.144002,0 -0.267556,0.0855496 -0.564151,0.39062499 -0.370334,0.3809218 -0.388688,0.4162413 -0.738868,1.421875 -1.024523,2.9421866 -2.219617,5.6349712 -3.323943,7.4895134 -0.992624,1.666953 -1.165472,1.859211 -6.021807,6.697987 -2.237165,2.229076 -4.306625,4.346304 -4.629138,4.735989 l -0.583259,0.70474 -0.612101,2.07213 c -0.336655,1.139672 -0.601507,2.082722 -0.588562,2.095669 0.01295,0.01295 0.343043,-0.129755 0.733547,-0.317114 0.90974,-0.43648 2.616259,-1.055882 2.616259,-0.949603 0,0.11492 -0.438216,1.363475 -0.669733,1.908189 -0.778913,1.83263 -1.731135,3.067266 -5.00436,6.488579 l -1.095276,1.144829 0.134481,0.134481 0.13448,0.134481 -0.294181,0.298673 -0.294182,0.298672 L 16.269,35.366845 16.035165,35.138511 14.95401,35.786922 c -1.445715,0.867051 -2.202257,1.253784 -2.977828,1.522219 -0.35567,0.123103 -0.673972,0.223823 -0.707337,0.223823 -0.03383,0 -0.04187,-0.06219 -0.01816,-0.140625 z m 2.465923,-1.595865 c 0.345792,-0.153719 1.758044,-0.934055 1.841514,-1.017525 0.03923,-0.03923 -0.214357,-0.33637 -0.717607,-0.84083 -0.428055,-0.429085 -0.792766,-0.779924 -0.810469,-0.77964 -0.113701,0.0018 -1.563438,2.904851 -1.563438,3.13071 0,0.04578 0.341054,-0.08866 1.25,-0.492715 z M 2.3506358,25.031827 C 2.8033489,24.835926 4.2692333,24.061867 4.591606,23.848484 4.667497,23.798254 4.536707,23.637272 3.9050439,23.003447 3.4758722,22.572806 3.1049801,22.220464 3.0808391,22.220464 c -0.1152638,0 -1.5517331,2.836328 -1.5517331,3.063918 0,0.08708 0.126591,0.04816 0.8215298,-0.252555 z M 28.728677,11.803766 c 0.419037,-0.188052 0.811738,-0.581501 1.007906,-1.009823 0.204471,-0.44645 0.19188,-1.237675 -0.02703,-1.6984794 C 29.501829,8.6582011 29.153865,8.3102373 28.716603,8.1025136 28.254415,7.8829492 27.46328,7.870078 27.018124,8.0748796 25.724096,8.670219 25.399313,10.403174 26.395132,11.398993 c 0.62794,0.627939 1.49942,0.779105 2.333542,0.404773 z"
     id="path168" />
</svg>
