<?xml version="1.0" encoding="UTF-8"?>
<svg width="156.63mm" height="280.22mm" version="1.1" viewBox="0 0 554.99036 992.89988" xmlns="http://www.w3.org/2000/svg">
 <g transform="translate(-85.704 15.857)">
  <path transform="matrix(.9375 0 0 .9375 49.293 -45.164)" d="m335.66 106.85c-32.495 25.641-282.35 240.82-95.453 655.36l188.56 0.51367c190.28-413-57.797-629.92-90.092-655.83zm1.3867 13.018c48.227 45.112 99.132 110.89 114.6 165.61l-230.73-1.6387c27.344-68.821 70.297-128.03 116.14-163.97zm7.2949 18.164c56.933 110.74 17.408 132.77 17.408 132.77l74.002 0.30274s-34.461-80.236-91.41-133.07zm-7.0508 216.04c0.58269 1e-3 1.1662 0.0136 1.748 0.0391v-8e-3c36.081 0.84567 68.75 27.226 80.91 60.668 17.344 46.369-13.85 102.96-61.479 114.92-49.138 13.271-105.33-24.081-111.44-74.758-6.73-50.398 37.454-101.37 88.506-100.83 0.58504-0.0204 1.1673-0.0304 1.75-0.0293zm-1.668 52.697c-20.811-0.21732-38.822 20.56-36.078 41.104 2.4906 20.658 25.395 35.882 45.426 30.473 19.415-4.8767 32.13-27.944 25.061-46.846-4.957-13.632-18.274-24.386-32.982-24.73v4e-3c-0.47433-0.022-0.94881-0.0225-1.4258-4e-3zm-161.44 189.15s-104.21-1.824-37.375 284.64c0 0-1.0651-238.98 58.324-209.27zm322.3 1.3164-21.557 75.203c59.63-29.222 56.611 209.73 56.611 209.73 69.18-285.91-35.055-284.93-35.055-284.93zm-270.33 111.39 94.121 0.25585-0.19336 46.25-75.916-0.20703c-6.2391-15.74-11.78-30.604-18.012-46.299zm123.39 0.33593 94.855 0.25782-19.125 46.199-75.855-0.20703zm-103.1 64.77c2.9878 21.163 9.2045 74.973 25.348 102.56 16.143 27.591 44.392 47.384 62.236 138.46 16.016-85.4 42.863-107.09 62.988-138.12 20.126-31.026 25.7-84.691 25.906-102.42z" color="#000000" color-rendering="auto" image-rendering="auto" shape-rendering="auto" solid-color="#000000" style="isolation:auto;mix-blend-mode:normal;text-decoration-color:#000000;text-decoration-line:none;text-decoration-style:solid;text-indent:0;text-transform:none;white-space:normal"/>
 </g>
</svg>
