<?xml version="1.0" encoding="UTF-8" standalone="no"?>
<svg
   xmlns:dc="http://purl.org/dc/elements/1.1/"
   xmlns:cc="http://creativecommons.org/ns#"
   xmlns:rdf="http://www.w3.org/1999/02/22-rdf-syntax-ns#"
   xmlns:svg="http://www.w3.org/2000/svg"
   xmlns="http://www.w3.org/2000/svg"
   xmlns:sodipodi="http://sodipodi.sourceforge.net/DTD/sodipodi-0.dtd"
   xmlns:inkscape="http://www.inkscape.org/namespaces/inkscape"
   width="375.8"
   height="917.58"
   version="1.1"
   viewBox="0 0 375.80121 917.5802"
   id="svg120"
   sodipodi:docname="nave_sin_fuego.svg"
   inkscape:version="1.0.2-2 (e86c870879, 2021-01-15)">
  <metadata
     id="metadata126">
    <rdf:RDF>
      <cc:Work
         rdf:about="">
        <dc:format>image/svg+xml</dc:format>
        <dc:type
           rdf:resource="http://purl.org/dc/dcmitype/StillImage" />
        <dc:title></dc:title>
      </cc:Work>
    </rdf:RDF>
  </metadata>
  <defs
     id="defs124" />
  <sodipodi:namedview
     pagecolor="#ffffff"
     bordercolor="#666666"
     borderopacity="1"
     objecttolerance="10"
     gridtolerance="10"
     guidetolerance="10"
     inkscape:pageopacity="0"
     inkscape:pageshadow="2"
     inkscape:window-width="1920"
     inkscape:window-height="1017"
     id="namedview122"
     showgrid="false"
     inkscape:zoom="0.92634973"
     inkscape:cx="51.072453"
     inkscape:cy="451.96229"
     inkscape:window-x="-8"
     inkscape:window-y="-8"
     inkscape:window-maximized="1"
     inkscape:current-layer="svg120" />
  <rect
     x="223.81"
     y="627.7"
     width="16.601"
     height="24.506"
     ry=".11841"
     fill="#ccc"
     id="rect2" />
  <g
     transform="translate(495.35 145.49)"
     id="g20">
    <rect
       x="-274.91"
       y="486.77"
       width="8.6958"
       height="24.111"
       ry=".11841"
       id="rect14" />
    <rect
       transform="rotate(90)"
       x="502.18"
       y="250.79"
       width="8.6958"
       height="24.111"
       ry=".11841"
       id="rect16" />
    <rect
       x="-259.47"
       y="486.74"
       width="8.6958"
       height="24.111"
       ry=".11841"
       id="rect18" />
  </g>
  <rect
     x="139.22"
     y="630.86"
     width="14.229"
     height="19.763"
     ry=".11841"
     fill="#ccc"
     id="rect22" />
  <g
     transform="translate(583.36 268.75)"
     id="g100">
    <path
       d="m-483 308.36 15.968 51.258 57.572 0.74228 15.791-52.109z"
       fill="#ccc"
       fill-rule="evenodd"
       id="path24" />
    <path
       d="m-396.34-264.2c-25.15 24.543-218.46 230.25-72.033 624.17h146.42c146.43-393.92-46.882-599.6-72.033-624.14l-2.3483-0.0313z"
       fill="#ececec"
       fill-rule="evenodd"
       stroke="#000"
       stroke-width="9.0447"
       id="path26" />
    <path
       d="m-489.08-102.19 33.59-79.852 46.87-68.733 13.28-13.14 49.994 67.722 39.058 81.873 3.1246 17.183-186.7-1.0108"
       fill-opacity="0"
       stroke="#000"
       stroke-width=".87965"
       id="path28" />
    <path
       d="m-515.14 201.81s-107.08-1.3336-42.426 270.72c0 0 6.0609-227.16 62.629-199.15"
       fill="#f00"
       fill-rule="evenodd"
       stroke="#000"
       stroke-width="10"
       id="path30" />
    <path
       d="m-275.78 202.93s107.08-1.3336 42.426 270.72c0 0-6.0609-227.16-62.629-199.15"
       fill="#f00"
       fill-rule="evenodd"
       stroke="#000"
       stroke-width="10"
       id="path32" />
    <path
       d="m-251.44 232.2-18.062 46.241-11.628-7.2718-11.853 3.5725 17.159-69.361 33.867 14.931s50.121 38.708 8.5782 227.37c24.384-195.14-18.965-215.48-18.062-215.48z"
       fill="#d20000"
       fill-rule="evenodd"
       id="path34" />
    <path
       d="m-560.59 469.5s-10.061-220.37 58.589-221.22c7.5756-0.0943 7.0711 24.244 7.0711 24.244l-27.274 6.0609-21.213 66.67-17.173 124.25z"
       fill="#d20000"
       fill-rule="evenodd"
       id="path36" />
    <path
       d="m-325.79 355.3s115.51-214.55 24.582-450.75c31.694 362.16-163.97 450.89-163.97 450.89z"
       fill="#ccc"
       fill-rule="evenodd"
       id="path38" />
    <path
       d="m-304.78-104.24s-29.849-101.31-90.914-154.05c55.89 127.56 2.3145 153.77 2.3145 153.77z"
       fill="#ccc"
       fill-rule="evenodd"
       id="path40" />
    <path
       d="m-487.69-108.84h185.68"
       fill="none"
       stroke="#f00"
       stroke-width="8.8441"
       id="path42" />
    <path
       d="m-490.48 295.86h191.27"
       fill="none"
       stroke="#f00"
       stroke-width="9.2354"
       id="path44" />
    <path
       d="m-513.89 178v-4.3017h240.22v8.6034h-240.22v-4.3017z"
       fill="#f00"
       stroke="#f00"
       stroke-width=".88296"
       id="path46" />
    <path
       d="m-396.9-264.21c-25.042 24.544-217.52 230.25-71.723 624.19h145.78c145.8-393.93-46.68-599.61-71.723-624.16l-2.3382-0.0313z"
       fill="none"
       stroke="#000"
       stroke-width="9.0253"
       id="path48" />
    <path
       d="m-492.89-100.22h194.9"
       fill="none"
       stroke="#000"
       stroke-width="9.0611"
       id="path50" />
    <path
       d="m-485.47 304.99h181.77"
       fill="none"
       stroke="#000"
       stroke-width="9.0031"
       id="path52" />
    <path
       d="m-277.78 202.89s109.31-1.0541 44.662 271c0 0-6.0609-227.16-62.629-199.15"
       fill="none"
       stroke="#000"
       stroke-width="10"
       id="path54" />
    <path
       d="m-515.14 201.81s-107.08-1.3336-42.426 270.72c0 0 6.0609-227.16 62.629-199.15"
       fill="none"
       stroke="#000"
       stroke-width="10"
       id="path56" />
    <path
       d="m-490.62-116.95h185.68"
       fill="none"
       stroke="#000"
       stroke-width="8.8441"
       id="path58" />
    <path
       d="m-490.76 288.04h191.27"
       fill="none"
       stroke="#000"
       stroke-width="9.2354"
       id="path60" />
    <path
       d="m-517.22 168.95h240.29"
       fill="none"
       stroke="#000"
       stroke-width="10.351"
       id="path62" />
    <path
       d="m-511.68 187.97h231.59"
       fill="none"
       stroke="#000"
       stroke-width="10.162"
       id="path64" />
    <g
       transform="translate(-2,4)"
       id="g98">
      <g
         transform="matrix(.75 0 0 .75 -97.56 -18.306)"
         id="g72">
        <path
           d="m-363.17-55.189a31.82 31.82 0 0 1 -63.64 0 31.82 31.82 0 1 1 63.64 0z"
           fill="#b3b3b3"
           stroke="#000"
           stroke-linecap="round"
           stroke-width="4"
           id="path66" />
        <ellipse
           cx="-394.52"
           cy="-56.761"
           rx="20.749"
           ry="20.19"
           fill="#fff"
           stroke="#fff"
           stroke-width=".86666"
           id="ellipse68" />
        <path
           d="m-373.08-55.541a21.74 21.46 0 1 1 -43.48 0 21.74 21.46 0 1 1 43.48 0z"
           fill="none"
           stroke="#000"
           stroke-linecap="round"
           stroke-width="4.1722"
           id="path70" />
      </g>
      <g
         transform="matrix(.75 0 0 .75 -97.3 35.381)"
         id="g80">
        <path
           d="m-363.17-55.189a31.82 31.82 0 0 1 -63.64 0 31.82 31.82 0 1 1 63.64 0z"
           fill="#b3b3b3"
           stroke="#000"
           stroke-linecap="round"
           stroke-width="4"
           id="path74" />
        <ellipse
           cx="-394.52"
           cy="-56.761"
           rx="20.749"
           ry="20.19"
           fill="#fff"
           stroke="#fff"
           stroke-width=".86666"
           id="ellipse76" />
        <path
           d="m-373.08-55.541a21.74 21.46 0 1 1 -43.48 0 21.74 21.46 0 1 1 43.48 0z"
           fill="none"
           stroke="#000"
           stroke-linecap="round"
           stroke-width="4.1722"
           id="path78" />
      </g>
      <g
         transform="matrix(.75 0 0 .75 -97.3 89.137)"
         id="g88">
        <path
           d="m-363.17-55.189a31.82 31.82 0 0 1 -63.64 0 31.82 31.82 0 1 1 63.64 0z"
           fill="#b3b3b3"
           stroke="#000"
           stroke-linecap="round"
           stroke-width="4"
           id="path82" />
        <ellipse
           cx="-394.52"
           cy="-56.761"
           rx="20.749"
           ry="20.19"
           fill="#fff"
           stroke="#fff"
           stroke-width=".86666"
           id="ellipse84" />
        <path
           d="m-373.08-55.541a21.74 21.46 0 1 1 -43.48 0 21.74 21.46 0 1 1 43.48 0z"
           fill="none"
           stroke="#000"
           stroke-linecap="round"
           stroke-width="4.1722"
           id="path86" />
      </g>
      <g
         transform="matrix(.75 0 0 .75 -97.3 142.89)"
         id="g96">
        <path
           d="m-363.17-55.189a31.82 31.82 0 0 1 -63.64 0 31.82 31.82 0 1 1 63.64 0z"
           fill="#b3b3b3"
           stroke="#000"
           stroke-linecap="round"
           stroke-width="4"
           id="path90" />
        <ellipse
           cx="-394.52"
           cy="-56.761"
           rx="20.749"
           ry="20.19"
           fill="#fff"
           stroke="#fff"
           stroke-width=".86666"
           id="ellipse92" />
        <path
           d="m-373.08-55.541a21.74 21.46 0 1 1 -43.48 0 21.74 21.46 0 1 1 43.48 0z"
           fill="none"
           stroke="#000"
           stroke-linecap="round"
           stroke-width="4.1722"
           id="path94" />
      </g>
    </g>
  </g>
  <g
     transform="translate(408.79 146.27)"
     id="g118">
    <rect
       x="-274.91"
       y="486.77"
       width="8.6958"
       height="24.111"
       ry=".11841"
       id="rect112" />
    <rect
       transform="rotate(90)"
       x="502.18"
       y="250.79"
       width="8.6958"
       height="24.111"
       ry=".11841"
       id="rect114" />
    <rect
       x="-259.47"
       y="486.74"
       width="8.6958"
       height="24.111"
       ry=".11841"
       id="rect116" />
  </g>
</svg>
