<?xml version="1.0" encoding="UTF-8"?>
<svg width="375.8" height="917.58" version="1.1" viewBox="0 0 375.80121 917.5802" xmlns="http://www.w3.org/2000/svg">
 <rect x="223.81" y="627.7" width="16.601" height="24.506" ry=".11841" fill="#ccc"/>
 <g transform="matrix(.31649 0 0 1 122.79 -116.18)">
  <g transform="translate(102.41 -3.9526)" fill-rule="evenodd" stroke-width="3.75">
   <path d="m183.73 785.21s-17.176 43.56-29.243 83.522c-12.068 39.964-6.1681 75.915-4.0012 78.955 2.1661 3.0386 16.408-9.2717 22.766-18.803 6.3585-9.5316 4.9931-48.351 9.1422 15.898 4.1485 64.248 13.364 101.78 19.215 89.995 21.109-19.592 29.302-111.12 41.902-74.991 12.599 36.125 29.539 102.94 34.257 41.905 4.7178-61.035-4.9062-105.29 12.393-79.482 17.299 25.805 26.006 61.083 34.016 27.727 8.0086-33.356-7.7514-124.81-14.703-163.78-21.558-10.252-68.805-24.093-125.75-0.95214z" fill="#ff0"/>
   <path d="m190.57 781.67s-14.903 36.786-25.375 70.533c-10.471 33.749-5.3521 64.11-3.4719 66.676 1.8795 2.566 14.237-7.8298 19.754-15.879 5.5173-8.0493 4.3325-40.832 7.9327 13.426 3.5997 54.257 11.596 85.95 16.673 76 18.317-16.545 25.426-93.837 36.359-63.329 10.932 30.507 25.631 86.932 29.725 35.388 4.0937-51.544-4.2571-88.915 10.754-67.122 15.011 21.792 22.566 51.584 29.516 23.415 6.9491-28.169-6.726-105.4-12.758-138.31-18.706-8.6575-59.702-20.346-109.11-0.80408z" fill="#ff4000"/>
   <path d="m204.02 777.97s-11.116 26.755-18.927 51.3c-7.8105 24.546-3.9921 46.628-2.5897 48.495 1.402 1.8663 10.619-5.6948 14.735-11.549 4.1153-5.8544 3.2316-29.698 5.917 9.7648 2.685 39.462 8.6493 62.513 12.436 55.276 13.662-12.034 18.965-68.249 27.12-46.06 8.1543 22.188 19.118 63.227 22.172 25.738 3.0535-37.489-3.1753-64.67 8.0213-48.819 11.196 15.85 16.832 37.518 22.016 17.031 5.1833-20.488-5.0168-76.66-9.5161-100.59-13.953-6.2968-44.532-14.798-81.386-0.58483z" fill="#f00"/>
  </g>
 </g>
 <g transform="translate(495.35 145.49)">
  <rect x="-274.91" y="486.77" width="8.6958" height="24.111" ry=".11841"/>
  <rect transform="rotate(90)" x="502.18" y="250.79" width="8.6958" height="24.111" ry=".11841"/>
  <rect x="-259.47" y="486.74" width="8.6958" height="24.111" ry=".11841"/>
 </g>
 <rect x="139.22" y="630.86" width="14.229" height="19.763" ry=".11841" fill="#ccc"/>
 <g transform="translate(583.36 268.75)">
  <path d="m-483 308.36 15.968 51.258 57.572 0.74228 15.791-52.109z" fill="#ccc" fill-rule="evenodd"/>
  <path d="m-396.34-264.2c-25.15 24.543-218.46 230.25-72.033 624.17h146.42c146.43-393.92-46.882-599.6-72.033-624.14l-2.3483-0.0313z" fill="#ececec" fill-rule="evenodd" stroke="#000" stroke-width="9.0447"/>
  <path d="m-489.08-102.19 33.59-79.852 46.87-68.733 13.28-13.14 49.994 67.722 39.058 81.873 3.1246 17.183-186.7-1.0108" fill-opacity="0" stroke="#000" stroke-width=".87965"/>
  <path d="m-515.14 201.81s-107.08-1.3336-42.426 270.72c0 0 6.0609-227.16 62.629-199.15" fill="#f00" fill-rule="evenodd" stroke="#000" stroke-width="10"/>
  <path d="m-275.78 202.93s107.08-1.3336 42.426 270.72c0 0-6.0609-227.16-62.629-199.15" fill="#f00" fill-rule="evenodd" stroke="#000" stroke-width="10"/>
  <path d="m-251.44 232.2-18.062 46.241-11.628-7.2718-11.853 3.5725 17.159-69.361 33.867 14.931s50.121 38.708 8.5782 227.37c24.384-195.14-18.965-215.48-18.062-215.48z" fill="#d20000" fill-rule="evenodd"/>
  <path d="m-560.59 469.5s-10.061-220.37 58.589-221.22c7.5756-0.0943 7.0711 24.244 7.0711 24.244l-27.274 6.0609-21.213 66.67-17.173 124.25z" fill="#d20000" fill-rule="evenodd"/>
  <path d="m-325.79 355.3s115.51-214.55 24.582-450.75c31.694 362.16-163.97 450.89-163.97 450.89z" fill="#ccc" fill-rule="evenodd"/>
  <path d="m-304.78-104.24s-29.849-101.31-90.914-154.05c55.89 127.56 2.3145 153.77 2.3145 153.77z" fill="#ccc" fill-rule="evenodd"/>
  <path d="m-487.69-108.84h185.68" fill="none" stroke="#f00" stroke-width="8.8441"/>
  <path d="m-490.48 295.86h191.27" fill="none" stroke="#f00" stroke-width="9.2354"/>
  <path d="m-513.89 178v-4.3017h240.22v8.6034h-240.22v-4.3017z" fill="#f00" stroke="#f00" stroke-width=".88296"/>
  <path d="m-396.9-264.21c-25.042 24.544-217.52 230.25-71.723 624.19h145.78c145.8-393.93-46.68-599.61-71.723-624.16l-2.3382-0.0313z" fill="none" stroke="#000" stroke-width="9.0253"/>
  <path d="m-492.89-100.22h194.9" fill="none" stroke="#000" stroke-width="9.0611"/>
  <path d="m-485.47 304.99h181.77" fill="none" stroke="#000" stroke-width="9.0031"/>
  <path d="m-277.78 202.89s109.31-1.0541 44.662 271c0 0-6.0609-227.16-62.629-199.15" fill="none" stroke="#000" stroke-width="10"/>
  <path d="m-515.14 201.81s-107.08-1.3336-42.426 270.72c0 0 6.0609-227.16 62.629-199.15" fill="none" stroke="#000" stroke-width="10"/>
  <path d="m-490.62-116.95h185.68" fill="none" stroke="#000" stroke-width="8.8441"/>
  <path d="m-490.76 288.04h191.27" fill="none" stroke="#000" stroke-width="9.2354"/>
  <path d="m-517.22 168.95h240.29" fill="none" stroke="#000" stroke-width="10.351"/>
  <path d="m-511.68 187.97h231.59" fill="none" stroke="#000" stroke-width="10.162"/>
  <g transform="translate(-2,4)">
   <g transform="matrix(.75 0 0 .75 -97.56 -18.306)">
    <path d="m-363.17-55.189a31.82 31.82 0 0 1 -63.64 0 31.82 31.82 0 1 1 63.64 0z" fill="#b3b3b3" stroke="#000" stroke-linecap="round" stroke-width="4"/>
    <ellipse cx="-394.52" cy="-56.761" rx="20.749" ry="20.19" fill="#fff" stroke="#fff" stroke-width=".86666"/>
    <path d="m-373.08-55.541a21.74 21.46 0 1 1 -43.48 0 21.74 21.46 0 1 1 43.48 0z" fill="none" stroke="#000" stroke-linecap="round" stroke-width="4.1722"/>
   </g>
   <g transform="matrix(.75 0 0 .75 -97.3 35.381)">
    <path d="m-363.17-55.189a31.82 31.82 0 0 1 -63.64 0 31.82 31.82 0 1 1 63.64 0z" fill="#b3b3b3" stroke="#000" stroke-linecap="round" stroke-width="4"/>
    <ellipse cx="-394.52" cy="-56.761" rx="20.749" ry="20.19" fill="#fff" stroke="#fff" stroke-width=".86666"/>
    <path d="m-373.08-55.541a21.74 21.46 0 1 1 -43.48 0 21.74 21.46 0 1 1 43.48 0z" fill="none" stroke="#000" stroke-linecap="round" stroke-width="4.1722"/>
   </g>
   <g transform="matrix(.75 0 0 .75 -97.3 89.137)">
    <path d="m-363.17-55.189a31.82 31.82 0 0 1 -63.64 0 31.82 31.82 0 1 1 63.64 0z" fill="#b3b3b3" stroke="#000" stroke-linecap="round" stroke-width="4"/>
    <ellipse cx="-394.52" cy="-56.761" rx="20.749" ry="20.19" fill="#fff" stroke="#fff" stroke-width=".86666"/>
    <path d="m-373.08-55.541a21.74 21.46 0 1 1 -43.48 0 21.74 21.46 0 1 1 43.48 0z" fill="none" stroke="#000" stroke-linecap="round" stroke-width="4.1722"/>
   </g>
   <g transform="matrix(.75 0 0 .75 -97.3 142.89)">
    <path d="m-363.17-55.189a31.82 31.82 0 0 1 -63.64 0 31.82 31.82 0 1 1 63.64 0z" fill="#b3b3b3" stroke="#000" stroke-linecap="round" stroke-width="4"/>
    <ellipse cx="-394.52" cy="-56.761" rx="20.749" ry="20.19" fill="#fff" stroke="#fff" stroke-width=".86666"/>
    <path d="m-373.08-55.541a21.74 21.46 0 1 1 -43.48 0 21.74 21.46 0 1 1 43.48 0z" fill="none" stroke="#000" stroke-linecap="round" stroke-width="4.1722"/>
   </g>
  </g>
 </g>
 <g transform="matrix(.31649 0 0 1 35.834 -115.39)">
  <g transform="translate(102.41 -3.9526)" fill-rule="evenodd" stroke-width="3.75">
   <path d="m183.73 785.21s-17.176 43.56-29.243 83.522c-12.068 39.964-6.1681 75.915-4.0012 78.955 2.1661 3.0386 16.408-9.2717 22.766-18.803 6.3585-9.5316 4.9931-48.351 9.1422 15.898 4.1485 64.248 13.364 101.78 19.215 89.995 21.109-19.592 29.302-111.12 41.902-74.991 12.599 36.125 29.539 102.94 34.257 41.905 4.7178-61.035-4.9062-105.29 12.393-79.482 17.299 25.805 26.006 61.083 34.016 27.727 8.0086-33.356-7.7514-124.81-14.703-163.78-21.558-10.252-68.805-24.093-125.75-0.95214z" fill="#ff0"/>
   <path d="m190.57 781.67s-14.903 36.786-25.375 70.533c-10.471 33.749-5.3521 64.11-3.4719 66.676 1.8795 2.566 14.237-7.8298 19.754-15.879 5.5173-8.0493 4.3325-40.832 7.9327 13.426 3.5997 54.257 11.596 85.95 16.673 76 18.317-16.545 25.426-93.837 36.359-63.329 10.932 30.507 25.631 86.932 29.725 35.388 4.0937-51.544-4.2571-88.915 10.754-67.122 15.011 21.792 22.566 51.584 29.516 23.415 6.9491-28.169-6.726-105.4-12.758-138.31-18.706-8.6575-59.702-20.346-109.11-0.80408z" fill="#ff4000"/>
   <path d="m204.02 777.97s-11.116 26.755-18.927 51.3c-7.8105 24.546-3.9921 46.628-2.5897 48.495 1.402 1.8663 10.619-5.6948 14.735-11.549 4.1153-5.8544 3.2316-29.698 5.917 9.7648 2.685 39.462 8.6493 62.513 12.436 55.276 13.662-12.034 18.965-68.249 27.12-46.06 8.1543 22.188 19.118 63.227 22.172 25.738 3.0535-37.489-3.1753-64.67 8.0213-48.819 11.196 15.85 16.832 37.518 22.016 17.031 5.1833-20.488-5.0168-76.66-9.5161-100.59-13.953-6.2968-44.532-14.798-81.386-0.58483z" fill="#f00"/>
  </g>
 </g>
 <g transform="translate(408.79 146.27)">
  <rect x="-274.91" y="486.77" width="8.6958" height="24.111" ry=".11841"/>
  <rect transform="rotate(90)" x="502.18" y="250.79" width="8.6958" height="24.111" ry=".11841"/>
  <rect x="-259.47" y="486.74" width="8.6958" height="24.111" ry=".11841"/>
 </g>
</svg>
